<?xml version="1.0" encoding="utf-8"?>
<!-- Generator: Adobe Illustrator 24.1.2, SVG Export Plug-In . SVG Version: 6.00 Build 0)  -->
<svg version="1.1" id="Layer_1" xmlns="http://www.w3.org/2000/svg" xmlns:xlink="http://www.w3.org/1999/xlink" x="0px" y="0px"
	 viewBox="0 0 130 25" style="enable-background:new 0 0 130 25;" xml:space="preserve">
<style type="text/css">
	.st0{fill:#FFFFFF;}
</style>
<g>
	<path class="st0" d="M9.51,6.99C9.34,7.23,9.16,7.25,8.96,7.07C8.77,6.89,8.59,6.63,8.43,6.31c-0.16-0.32-0.3-0.65-0.4-0.99
		C7.92,4.99,7.87,4.77,7.9,4.66c0.19-0.88,0.51-1.63,0.95-2.23c0.44-0.6,0.93-1.09,1.46-1.46c0.53-0.37,1.07-0.62,1.63-0.78
		C12.5,0.05,13.01-0.02,13.46,0c0.58,0.04,1.03,0.3,1.34,0.76c0.31,0.46,0.54,1,0.68,1.6c0.14,0.6,0.22,1.2,0.24,1.79
		c0.02,0.59,0.02,1.03,0,1.31c-0.04,1.03-0.18,2.12-0.4,3.27c-0.23,1.14-0.54,2.27-0.94,3.4c-0.4,1.12-0.87,2.19-1.42,3.22
		c-0.55,1.02-1.18,1.92-1.88,2.7c-0.7,0.78-1.47,1.4-2.31,1.86c-0.84,0.46-1.74,0.69-2.68,0.69c-0.69,0-1.3-0.12-1.84-0.36
		c-0.54-0.24-0.98-0.56-1.31-0.99c-0.33-0.42-0.54-0.93-0.63-1.52c-0.09-0.59-0.02-1.25,0.19-1.96c0.17-0.63,0.43-1.22,0.78-1.78
		c0.34-0.56,0.77-1.04,1.28-1.44c0.51-0.4,1.09-0.7,1.75-0.89c0.66-0.19,1.4-0.24,2.21-0.13c0.19,0.02,0.4,0.07,0.61,0.15
		c0.22,0.08,0.39,0.16,0.52,0.26c0.13,0.1,0.18,0.2,0.15,0.31c-0.03,0.11-0.19,0.23-0.47,0.36c-1.08-0.13-2.05,0.12-2.91,0.76
		c-0.86,0.64-1.47,1.54-1.81,2.7c-0.13,0.39-0.22,0.81-0.27,1.26c-0.05,0.45-0.03,0.87,0.06,1.26c0.1,0.39,0.29,0.71,0.57,0.95
		c0.28,0.25,0.68,0.36,1.2,0.34c0.69-0.04,1.35-0.32,1.97-0.84c0.62-0.52,1.2-1.19,1.73-2c0.53-0.82,1.01-1.75,1.44-2.78
		c0.43-1.04,0.8-2.09,1.12-3.15c0.31-1.07,0.55-2.11,0.73-3.12c0.17-1.01,0.27-1.9,0.29-2.65c0.04-1.27,0.01-2.24-0.1-2.89
		c-0.11-0.66-0.25-1.03-0.42-1.12c-0.17-0.06-0.38-0.04-0.61,0.06c-0.24,0.11-0.49,0.29-0.74,0.53c-0.26,0.25-0.51,0.55-0.74,0.91
		c-0.24,0.36-0.42,0.74-0.55,1.15c-0.19,0.56-0.32,1-0.37,1.33C9.83,5.63,9.8,5.89,9.79,6.08C9.78,6.28,9.76,6.44,9.74,6.57
		C9.72,6.7,9.64,6.84,9.51,6.99z"/>
	<path class="st0" d="M17.6,17.11c-0.63-0.11-1.11-0.33-1.44-0.68c-0.33-0.34-0.57-0.75-0.7-1.23c-0.13-0.47-0.17-0.98-0.11-1.5
		c0.05-0.53,0.17-1.03,0.34-1.5c0.15-0.37,0.37-0.81,0.65-1.33c0.28-0.52,0.62-1.01,1.04-1.49c0.41-0.47,0.88-0.87,1.41-1.2
		c0.53-0.32,1.12-0.49,1.76-0.49c0.41,0,0.73,0.08,0.95,0.23c0.23,0.15,0.39,0.33,0.49,0.55c0.1,0.22,0.15,0.45,0.15,0.71
		s-0.01,0.52-0.03,0.78c-0.04,0.35-0.19,0.76-0.44,1.26c-0.25,0.5-0.58,1-0.99,1.5c-0.41,0.51-0.88,0.99-1.41,1.45
		c-0.53,0.46-1.09,0.84-1.7,1.12c0.04,0.24,0.15,0.44,0.32,0.6c0.17,0.16,0.37,0.22,0.58,0.18c0.73-0.11,1.42-0.39,2.05-0.84
		c0.64-0.45,1.21-0.97,1.73-1.57c0.52-0.59,0.97-1.21,1.36-1.84c0.39-0.64,0.69-1.19,0.91-1.67c0.04-0.11,0.12-0.18,0.24-0.23
		c0.12-0.04,0.23-0.06,0.34-0.06c0.11,0,0.2,0.03,0.27,0.1c0.08,0.06,0.09,0.14,0.05,0.23c-0.43,0.82-0.9,1.66-1.41,2.52
		c-0.51,0.86-1.08,1.64-1.71,2.33c-0.64,0.69-1.34,1.23-2.12,1.63C19.41,17.07,18.55,17.22,17.6,17.11z M17.82,12.52
		c-0.06,0.19-0.13,0.49-0.19,0.87c-0.06,0.39-0.11,0.79-0.13,1.2c0.62-0.41,1.2-0.93,1.71-1.57c0.52-0.64,0.92-1.26,1.2-1.88
		c0.28-0.61,0.42-1.15,0.42-1.6c0-0.45-0.21-0.69-0.61-0.71c-0.19-0.02-0.4,0.09-0.63,0.32c-0.23,0.24-0.44,0.53-0.65,0.89
		c-0.2,0.36-0.4,0.75-0.6,1.2C18.15,11.68,17.97,12.11,17.82,12.52z"/>
	<path class="st0" d="M24.39,24.94c-0.39,0.09-0.7,0.09-0.94,0c-0.24-0.09-0.43-0.22-0.57-0.39c-0.14-0.17-0.24-0.38-0.31-0.61
		c-0.06-0.24-0.11-0.47-0.13-0.71c-0.09-0.58-0.11-1.28-0.06-2.1c0.04-0.82,0.12-1.7,0.23-2.65c0.11-0.95,0.25-1.91,0.42-2.89
		c0.17-0.98,0.37-1.92,0.58-2.81c0.21-0.89,0.44-1.71,0.68-2.46c0.24-0.74,0.47-1.33,0.71-1.76c0.09-0.24,0.25-0.43,0.5-0.57
		c0.25-0.14,0.5-0.23,0.76-0.26c0.26-0.03,0.48-0.01,0.66,0.08c0.18,0.09,0.25,0.24,0.21,0.45c-0.17,0.3-0.37,0.77-0.58,1.39
		c0.3-0.43,0.64-0.8,1-1.12c0.37-0.31,0.83-0.49,1.39-0.53c0.69-0.02,1.17,0.17,1.45,0.57c0.28,0.4,0.45,0.87,0.5,1.41
		c0.05,0.54,0.04,1.06-0.05,1.57c-0.09,0.51-0.16,0.87-0.23,1.08c-0.11,0.35-0.22,0.68-0.32,1c-0.11,0.32-0.24,0.65-0.39,0.97
		c0.71-0.5,1.4-1.13,2.07-1.89c0.67-0.76,1.26-1.6,1.78-2.51c0.06-0.09,0.16-0.15,0.27-0.19c0.12-0.04,0.23-0.06,0.34-0.06
		c0.11,0,0.19,0.03,0.26,0.08c0.06,0.05,0.08,0.14,0.03,0.24L34.25,11c-0.19,0.37-0.46,0.78-0.79,1.23
		c-0.33,0.45-0.72,0.91-1.16,1.36c-0.44,0.45-0.92,0.87-1.44,1.25c-0.52,0.38-1.06,0.67-1.62,0.89c-0.37,0.54-0.81,0.95-1.34,1.23
		c-0.53,0.28-1.14,0.4-1.83,0.36c-0.3-0.02-0.52-0.09-0.66-0.21s-0.25-0.19-0.34-0.21c-0.02,0.02-0.04,0.02-0.06,0
		c-0.17,1.19-0.31,2.33-0.42,3.43c-0.11,1.1-0.16,2.03-0.16,2.78c0,0.13,0.01,0.3,0.03,0.5c0.02,0.21,0.04,0.4,0.05,0.6
		c0.01,0.19,0.01,0.36,0,0.5C24.49,24.83,24.45,24.91,24.39,24.94z M27.04,15.95c-0.43-0.15-0.75-0.37-0.97-0.66
		c-0.22-0.29-0.38-0.62-0.49-0.99c-0.11,0.69-0.1,1.23,0.03,1.62c0.13,0.39,0.34,0.56,0.65,0.52c0.22-0.02,0.43-0.13,0.65-0.32
		L27.04,15.95z M26.97,10.29c-0.13,0.19-0.26,0.52-0.39,0.99c-0.13,0.46-0.24,0.85-0.32,1.15c-0.02,0.04-0.03,0.12-0.03,0.23
		l-0.06,0.48c0,0.19,0.02,0.41,0.06,0.65c0.04,0.24,0.12,0.46,0.23,0.66c0.11,0.21,0.25,0.39,0.42,0.55
		c0.17,0.16,0.38,0.28,0.61,0.34c0.22-0.39,0.41-0.83,0.6-1.33c0.18-0.5,0.35-1.01,0.5-1.55c0.13-0.47,0.23-0.94,0.29-1.41
		c0.06-0.46,0.1-0.87,0.1-1.23c0-0.36-0.03-0.64-0.08-0.86c-0.05-0.22-0.13-0.31-0.24-0.29c-0.17,0.02-0.35,0.11-0.53,0.26
		c-0.18,0.15-0.35,0.31-0.5,0.49c-0.15,0.17-0.29,0.35-0.4,0.52C27.1,10.1,27.02,10.22,26.97,10.29z"/>
	<path class="st0" d="M34.38,8.41c0.04-0.15,0.18-0.3,0.42-0.44c0.24-0.14,0.49-0.25,0.76-0.32c0.27-0.07,0.52-0.1,0.74-0.08
		c0.23,0.02,0.35,0.11,0.37,0.26c-0.04,0.09-0.13,0.34-0.26,0.76c-0.13,0.42-0.27,0.92-0.44,1.49c-0.16,0.57-0.32,1.19-0.47,1.84
		c-0.15,0.66-0.27,1.27-0.37,1.83c-0.1,0.56-0.15,1.04-0.16,1.44c-0.01,0.4,0.05,0.62,0.18,0.66c0.04,0.02,0.15-0.07,0.31-0.29
		c0.16-0.22,0.36-0.5,0.6-0.84c0.24-0.34,0.49-0.73,0.76-1.16c0.27-0.43,0.54-0.86,0.81-1.29c0.27-0.43,0.52-0.83,0.76-1.2
		c0.24-0.37,0.43-0.66,0.58-0.87c0.06-0.09,0.16-0.15,0.27-0.19c0.12-0.04,0.23-0.06,0.34-0.06c0.11,0,0.19,0.03,0.26,0.08
		c0.06,0.05,0.08,0.14,0.03,0.24c-0.5,0.97-1.04,1.94-1.63,2.89c-0.59,0.96-1.14,1.85-1.63,2.67c-0.04,0.06-0.12,0.17-0.24,0.32
		c-0.12,0.15-0.26,0.3-0.42,0.45c-0.16,0.15-0.34,0.29-0.53,0.4c-0.19,0.12-0.39,0.18-0.58,0.18c-0.56-0.02-0.97-0.17-1.23-0.44
		c-0.26-0.27-0.43-0.63-0.5-1.07c-0.08-0.44-0.09-0.93-0.05-1.47c0.04-0.54,0.1-1.09,0.16-1.65c0.13-0.93,0.33-1.77,0.6-2.54
		C34.08,9.25,34.27,8.71,34.38,8.41z M35.25,4.18c0.13-0.3,0.36-0.54,0.7-0.73c0.33-0.18,0.68-0.24,1.05-0.18
		c0.37,0.04,0.63,0.19,0.79,0.45c0.16,0.26,0.18,0.55,0.05,0.87c-0.15,0.3-0.39,0.54-0.73,0.71c-0.33,0.17-0.68,0.23-1.05,0.16
		c-0.37-0.04-0.63-0.19-0.79-0.45C35.11,4.76,35.1,4.48,35.25,4.18z"/>
	<path class="st0" d="M38.55,8.8c0-0.17,0.06-0.33,0.18-0.49c0.12-0.15,0.27-0.28,0.45-0.39c0.18-0.11,0.39-0.19,0.61-0.26
		c0.23-0.06,0.45-0.1,0.66-0.1c0.13,0,0.23,0.11,0.29,0.34s0.12,0.48,0.16,0.76c0.04,0.28,0.07,0.56,0.08,0.82
		c0.01,0.27,0.03,0.47,0.05,0.6c0.3-0.43,0.65-0.85,1.05-1.26c0.4-0.41,0.72-0.7,0.95-0.87c0.26-0.15,0.53-0.26,0.82-0.32
		c0.29-0.06,0.57-0.09,0.84-0.06c0.27,0.02,0.5,0.09,0.68,0.19c0.18,0.11,0.3,0.26,0.34,0.45c0.04,0.24,0.04,0.56-0.02,0.97
		c-0.05,0.41-0.13,0.86-0.23,1.34c-0.1,0.49-0.21,0.98-0.32,1.49c-0.12,0.51-0.22,0.98-0.31,1.41c-0.04,0.13-0.11,0.32-0.19,0.58
		c-0.09,0.26-0.16,0.53-0.23,0.81c-0.06,0.28-0.11,0.52-0.13,0.73c-0.02,0.21,0.01,0.32,0.1,0.34c0.04,0.02,0.17-0.08,0.37-0.31
		c0.2-0.23,0.45-0.51,0.73-0.86c0.28-0.34,0.59-0.74,0.92-1.18s0.66-0.87,0.99-1.29c0.32-0.42,0.63-0.81,0.91-1.18
		s0.5-0.66,0.65-0.87c0.06-0.09,0.16-0.15,0.29-0.19c0.13-0.04,0.25-0.06,0.37-0.05c0.12,0.01,0.2,0.04,0.26,0.1
		c0.05,0.05,0.05,0.12-0.02,0.21c-0.06,0.17-0.2,0.42-0.4,0.73c-0.21,0.31-0.45,0.67-0.73,1.07c-0.28,0.4-0.59,0.82-0.92,1.28
		c-0.33,0.45-0.66,0.89-0.99,1.33c-0.54,0.69-1.04,1.29-1.5,1.79c-0.46,0.51-0.91,0.76-1.34,0.76c-0.65,0-1.11-0.12-1.39-0.36
		c-0.28-0.24-0.43-0.55-0.45-0.94c0.02-0.45,0.09-0.96,0.19-1.52c0.11-0.56,0.23-1.14,0.37-1.75c0.14-0.6,0.28-1.2,0.42-1.79
		c0.14-0.59,0.25-1.15,0.34-1.67c0.02-0.06,0.02-0.16-0.02-0.29c-0.03-0.13-0.13-0.14-0.31-0.03c-0.17,0.09-0.39,0.28-0.65,0.58
		c-0.26,0.3-0.51,0.63-0.74,0.99c-0.24,0.36-0.45,0.7-0.63,1.03c-0.18,0.34-0.28,0.58-0.28,0.73c-0.15,0.69-0.31,1.38-0.47,2.07
		c-0.16,0.69-0.4,1.42-0.73,2.2c-0.09,0.15-0.26,0.28-0.52,0.39c-0.26,0.11-0.52,0.18-0.78,0.21c-0.26,0.03-0.49,0.02-0.68-0.05
		c-0.19-0.06-0.28-0.18-0.26-0.36c0.22-0.45,0.43-0.98,0.63-1.58c0.2-0.6,0.37-1.25,0.49-1.94c0.12-0.69,0.19-1.41,0.21-2.15
		C38.77,10.24,38.7,9.51,38.55,8.8z"/>
	<path class="st0" d="M57.4,2.98c0.04-0.09,0.19-0.2,0.44-0.34c0.25-0.14,0.51-0.27,0.78-0.39c0.27-0.12,0.51-0.2,0.71-0.24
		c0.2-0.04,0.3-0.02,0.28,0.06c-0.17,0.73-0.32,1.42-0.44,2.05c-0.12,0.64-0.23,1.26-0.32,1.86c-0.1,0.6-0.19,1.21-0.27,1.83
		c-0.09,0.61-0.17,1.28-0.26,1.99c0.6,0.19,1.09,0.47,1.46,0.84c0.84-0.45,1.55-1.04,2.13-1.76c0.58-0.72,1.07-1.5,1.45-2.34
		c0.39-0.84,0.69-1.7,0.91-2.59c0.22-0.88,0.39-1.71,0.52-2.49c0-0.17,0.16-0.33,0.48-0.47c0.32-0.14,0.66-0.24,1.02-0.31
		c0.36-0.06,0.66-0.09,0.92-0.06c0.26,0.02,0.32,0.12,0.19,0.29c-0.26,1.25-0.58,2.43-0.97,3.54c-0.39,1.11-0.87,2.12-1.44,3.02
		c-0.57,0.91-1.23,1.7-1.97,2.39c-0.74,0.69-1.6,1.23-2.57,1.62c0.3,0.5,0.59,1.13,0.86,1.89c0.27,0.77,0.56,1.52,0.87,2.26
		c0.31,0.74,0.67,1.42,1.07,2.04c0.4,0.61,0.88,1.03,1.44,1.24c0.19,0.09,0.29,0.2,0.27,0.34c-0.01,0.14-0.08,0.27-0.21,0.39
		c-0.13,0.12-0.31,0.21-0.53,0.28c-0.23,0.06-0.46,0.06-0.7,0c-0.54-0.06-1-0.26-1.37-0.58c-0.38-0.32-0.7-0.72-0.97-1.2
		c-0.27-0.47-0.5-1-0.7-1.57c-0.19-0.57-0.37-1.14-0.52-1.7c-0.15-0.56-0.3-1.1-0.45-1.62c-0.15-0.52-0.31-0.95-0.49-1.29
		l-1.03,0.19c-0.19,1.23-0.35,2.33-0.47,3.3c-0.12,0.97-0.23,1.85-0.34,2.65c0,0.19-0.11,0.32-0.32,0.37
		c-0.22,0.05-0.46,0.05-0.74-0.02c-0.28-0.06-0.56-0.19-0.82-0.37c-0.27-0.18-0.45-0.43-0.53-0.73c0.11-0.8,0.26-1.62,0.45-2.46
		c0.19-0.84,0.38-1.72,0.55-2.65c-0.67-0.06-1.13-0.25-1.39-0.55c-0.26-0.3-0.36-0.6-0.29-0.91c0.06-0.37,0.29-0.65,0.68-0.86
		c0.39-0.2,0.87-0.33,1.46-0.37c0.13-0.71,0.23-1.32,0.31-1.83c0.08-0.51,0.15-1,0.23-1.47C56.81,5.8,56.9,5.31,57,4.81
		C57.1,4.3,57.23,3.69,57.4,2.98z M56.08,10.25c-0.28,0.04-0.51,0.12-0.68,0.24c-0.17,0.12-0.27,0.24-0.31,0.37s0.01,0.25,0.13,0.37
		c0.12,0.12,0.34,0.2,0.66,0.24L56.08,10.25z M58.08,11.29c0.11-0.04,0.27-0.09,0.49-0.13c-0.11-0.13-0.25-0.25-0.42-0.36
		C58.15,10.91,58.12,11.07,58.08,11.29z"/>
	<path class="st0" d="M70.01,10.29c-0.13,0.5-0.33,1.07-0.6,1.71c-0.27,0.65-0.5,1.26-0.69,1.84c-0.19,0.58-0.3,1.07-0.32,1.47
		c-0.02,0.4,0.15,0.6,0.52,0.6c0.21,0,0.51-0.23,0.89-0.68c0.38-0.45,0.77-0.99,1.18-1.62c0.41-0.63,0.8-1.26,1.18-1.89
		c0.38-0.64,0.68-1.14,0.92-1.5c0.06-0.09,0.16-0.15,0.29-0.19c0.13-0.04,0.25-0.06,0.36-0.05c0.11,0.01,0.19,0.04,0.26,0.1
		c0.06,0.05,0.06,0.12,0,0.21c-0.24,0.41-0.55,0.99-0.94,1.75c-0.39,0.76-0.82,1.51-1.29,2.26c-0.24,0.37-0.48,0.72-0.73,1.07
		c-0.25,0.35-0.52,0.65-0.81,0.93s-0.6,0.49-0.92,0.65c-0.32,0.16-0.68,0.24-1.07,0.24c-0.58,0-0.99-0.13-1.23-0.39
		c-0.24-0.26-0.38-0.61-0.42-1.04c-0.04-0.43,0-0.91,0.13-1.43c0.13-0.53,0.28-1.06,0.45-1.58c0.17-0.53,0.34-1.02,0.5-1.49
		c0.16-0.46,0.26-0.84,0.31-1.12c0-0.17-0.09-0.33-0.26-0.47c-0.17-0.14-0.31-0.1-0.42,0.11L67.26,9.8
		c-0.04,0.06-0.11,0.18-0.19,0.34c-0.09,0.16-0.15,0.26-0.19,0.31c-0.22,0.28-0.45,0.39-0.71,0.34c-0.26-0.05-0.32-0.19-0.19-0.4
		l0.13-0.26c0.19-0.5,0.3-0.92,0.31-1.26c0.01-0.34-0.04-0.68-0.15-1c-0.04-0.17,0.03-0.37,0.23-0.58c0.19-0.21,0.41-0.39,0.65-0.52
		c0.24-0.13,0.45-0.18,0.65-0.15c0.19,0.03,0.28,0.22,0.26,0.57c-0.09,0.19-0.08,0.38,0.03,0.55c0.11,0.17,0.25,0.34,0.42,0.52
		c0.13,0.11,0.26,0.25,0.4,0.42c0.14,0.17,0.3,0.34,0.47,0.52c0.24,0.19,0.42,0.38,0.55,0.57C70.05,9.94,70.08,10.11,70.01,10.29z"
		/>
	<path class="st0" d="M73.67,8.41c0.04-0.15,0.18-0.3,0.42-0.44c0.24-0.14,0.49-0.25,0.76-0.32c0.27-0.07,0.52-0.1,0.74-0.08
		c0.23,0.02,0.35,0.11,0.37,0.26c-0.04,0.09-0.13,0.34-0.26,0.76c-0.13,0.42-0.27,0.92-0.44,1.49c-0.16,0.57-0.32,1.19-0.47,1.84
		c-0.15,0.66-0.27,1.27-0.37,1.83s-0.15,1.04-0.16,1.44c-0.01,0.4,0.05,0.62,0.18,0.66c0.04,0.02,0.15-0.07,0.31-0.29
		c0.16-0.22,0.36-0.5,0.6-0.84c0.24-0.34,0.49-0.73,0.76-1.16c0.27-0.43,0.54-0.86,0.81-1.29c0.27-0.43,0.52-0.83,0.76-1.2
		c0.24-0.37,0.43-0.66,0.58-0.87c0.06-0.09,0.16-0.15,0.28-0.19c0.12-0.04,0.23-0.06,0.34-0.06c0.11,0,0.19,0.03,0.26,0.08
		c0.06,0.05,0.07,0.14,0.03,0.24c-0.5,0.97-1.04,1.94-1.63,2.89c-0.59,0.96-1.14,1.85-1.63,2.67c-0.04,0.06-0.12,0.17-0.24,0.32
		c-0.12,0.15-0.26,0.3-0.42,0.45c-0.16,0.15-0.34,0.29-0.53,0.4c-0.19,0.12-0.39,0.18-0.58,0.18c-0.56-0.02-0.97-0.17-1.23-0.44
		c-0.26-0.27-0.43-0.63-0.5-1.07c-0.08-0.44-0.09-0.93-0.05-1.47c0.04-0.54,0.1-1.09,0.16-1.65c0.13-0.93,0.33-1.77,0.6-2.54
		C73.37,9.25,73.56,8.71,73.67,8.41z M74.54,4.18c0.13-0.3,0.36-0.54,0.7-0.73c0.33-0.18,0.68-0.24,1.05-0.18
		c0.37,0.04,0.63,0.19,0.79,0.45c0.16,0.26,0.18,0.55,0.05,0.87c-0.15,0.3-0.39,0.54-0.73,0.71c-0.34,0.17-0.69,0.23-1.05,0.16
		c-0.37-0.04-0.63-0.19-0.79-0.45C74.39,4.76,74.39,4.48,74.54,4.18z"/>
	<path class="st0" d="M85.66,10.87c-0.43,0.65-0.93,1.28-1.49,1.89c-0.56,0.61-1.3,1.12-2.23,1.5c-0.11,0.65-0.36,1.23-0.74,1.75
		c-0.24,0.26-0.5,0.51-0.79,0.76c-0.29,0.25-0.7,0.42-1.21,0.53c-0.65,0.11-1.17,0.05-1.58-0.18c-0.41-0.23-0.68-0.52-0.81-0.87
		c-0.13-0.36-0.1-0.72,0.1-1.08c0.19-0.37,0.57-0.64,1.13-0.81c0.24-0.09,0.5-0.16,0.78-0.21c0.28-0.05,0.57-0.11,0.87-0.18
		c0.04-0.63,0.05-1.25,0.02-1.88c-0.03-0.63-0.05-1.08-0.05-1.36c-0.04-0.37-0.08-0.61-0.1-0.74c-0.02-0.13-0.12-0.09-0.29,0.13
		c-0.04,0.04-0.08,0.09-0.1,0.15c-0.02,0.05-0.05,0.1-0.1,0.15c-0.22,0.28-0.45,0.39-0.71,0.34c-0.26-0.05-0.32-0.19-0.19-0.4
		l0.32-0.52l0.03-0.06c0.19-0.3,0.33-0.53,0.4-0.7C79,8.91,79.09,8.61,79.2,8.15c0.02-0.13,0.14-0.27,0.36-0.42
		c0.21-0.15,0.45-0.28,0.71-0.39c0.26-0.11,0.49-0.17,0.69-0.18c0.21-0.01,0.31,0.07,0.31,0.24c-0.04,0.54-0.01,1.09,0.1,1.67
		c0.11,0.57,0.22,1.15,0.32,1.73c0.09,0.43,0.16,0.84,0.23,1.23c0.06,0.39,0.1,0.79,0.1,1.2c0.69-0.37,1.27-0.79,1.73-1.28
		c0.46-0.49,0.92-1.07,1.37-1.76c0.06-0.09,0.16-0.15,0.28-0.19c0.12-0.04,0.23-0.06,0.34-0.06c0.11,0,0.19,0.03,0.26,0.08
		c0.06,0.05,0.08,0.14,0.03,0.24L85.66,10.87z M78.42,16.43c0.3-0.04,0.54-0.2,0.71-0.48c0.17-0.28,0.31-0.64,0.42-1.07
		c-0.45,0.11-0.8,0.23-1.05,0.36c-0.25,0.13-0.44,0.25-0.57,0.37c-0.13,0.12-0.21,0.23-0.23,0.32c-0.02,0.1-0.03,0.18-0.03,0.24
		c0.02,0.06,0.07,0.14,0.16,0.21C77.92,16.46,78.12,16.47,78.42,16.43z"/>
	<path class="st0" d="M85.63,16.2c-0.09,0.28-0.25,0.51-0.5,0.7c-0.25,0.18-0.5,0.31-0.74,0.37c-0.25,0.06-0.47,0.08-0.66,0.03
		c-0.19-0.04-0.29-0.16-0.29-0.36c0.02-0.6,0.08-1.31,0.18-2.13c0.1-0.82,0.23-1.68,0.4-2.59c0.17-0.91,0.37-1.82,0.6-2.75
		c0.23-0.93,0.47-1.82,0.74-2.67c0.27-0.85,0.55-1.63,0.86-2.34c0.3-0.71,0.6-1.28,0.91-1.71c0.06-0.09,0.21-0.18,0.45-0.27
		c0.24-0.1,0.49-0.17,0.74-0.23c0.26-0.05,0.49-0.08,0.69-0.06c0.2,0.01,0.31,0.06,0.31,0.15c-0.04,0.06-0.19,0.4-0.45,1.02
		c-0.26,0.61-0.54,1.33-0.86,2.15c-0.31,0.82-0.6,1.65-0.87,2.51c-0.27,0.85-0.44,1.56-0.5,2.12c0.13-0.21,0.3-0.45,0.5-0.71
		c0.2-0.26,0.44-0.49,0.71-0.7c0.27-0.2,0.57-0.38,0.91-0.53c0.33-0.15,0.71-0.23,1.12-0.23c0.52,0,0.92,0.09,1.2,0.27
		c0.28,0.18,0.4,0.43,0.36,0.73c-0.06,0.47-0.21,1.1-0.44,1.88c-0.23,0.78-0.43,1.54-0.61,2.3c-0.18,0.76-0.3,1.42-0.36,2.01
		c-0.05,0.58,0.06,0.92,0.34,1c0.09,0.04,0.3-0.12,0.65-0.5c0.34-0.38,0.74-0.86,1.18-1.44c0.44-0.58,0.9-1.23,1.37-1.94
		c0.47-0.71,0.88-1.4,1.23-2.07c0.04-0.09,0.12-0.16,0.24-0.21c0.12-0.05,0.23-0.08,0.34-0.06c0.11,0.01,0.2,0.04,0.27,0.1
		c0.08,0.05,0.09,0.14,0.05,0.24c-0.11,0.19-0.28,0.51-0.5,0.94c-0.23,0.43-0.49,0.91-0.79,1.42c-0.3,0.52-0.64,1.06-1.02,1.62
		c-0.38,0.56-0.77,1.07-1.18,1.52c-0.41,0.45-0.82,0.82-1.23,1.12c-0.41,0.29-0.8,0.43-1.16,0.4c-0.56-0.02-0.97-0.16-1.23-0.42
		c-0.26-0.26-0.43-0.57-0.52-0.94c-0.11-0.45-0.12-0.94-0.05-1.46c0.08-0.52,0.18-1.05,0.31-1.6c0.13-0.55,0.26-1.1,0.4-1.65
		s0.23-1.07,0.28-1.57c0.02-0.06,0-0.16-0.06-0.29c-0.06-0.13-0.17-0.14-0.32-0.03c-0.06,0.04-0.19,0.13-0.39,0.26
		c-0.19,0.13-0.4,0.31-0.63,0.53c-0.23,0.23-0.45,0.49-0.66,0.79c-0.21,0.3-0.4,0.65-0.55,1.03c-0.11,0.28-0.21,0.61-0.29,0.99
		c-0.09,0.38-0.16,0.77-0.23,1.16c-0.06,0.4-0.12,0.79-0.16,1.16C85.65,15.63,85.63,15.95,85.63,16.2z"/>
	<path class="st0" d="M94.3,8.8c0-0.17,0.06-0.33,0.18-0.49c0.12-0.15,0.27-0.28,0.45-0.39c0.18-0.11,0.39-0.19,0.61-0.26
		c0.23-0.06,0.45-0.1,0.66-0.1c0.13,0,0.23,0.11,0.29,0.34c0.06,0.23,0.12,0.48,0.16,0.76c0.04,0.28,0.07,0.56,0.08,0.82
		c0.01,0.27,0.03,0.47,0.05,0.6c0.3-0.43,0.65-0.85,1.05-1.26c0.4-0.41,0.72-0.7,0.95-0.87c0.26-0.15,0.53-0.26,0.82-0.32
		c0.29-0.06,0.57-0.09,0.84-0.06c0.27,0.02,0.5,0.09,0.68,0.19c0.18,0.11,0.3,0.26,0.34,0.45c0.04,0.24,0.04,0.56-0.02,0.97
		c-0.05,0.41-0.13,0.86-0.23,1.34c-0.1,0.49-0.21,0.98-0.32,1.49c-0.12,0.51-0.22,0.98-0.31,1.41c-0.04,0.13-0.11,0.32-0.19,0.58
		c-0.09,0.26-0.16,0.53-0.23,0.81c-0.06,0.28-0.11,0.52-0.13,0.73c-0.02,0.21,0.01,0.32,0.1,0.34c0.04,0.02,0.17-0.08,0.37-0.31
		c0.21-0.23,0.45-0.51,0.73-0.86c0.28-0.34,0.59-0.74,0.92-1.18c0.33-0.44,0.66-0.87,0.99-1.29c0.32-0.42,0.62-0.81,0.91-1.18
		c0.28-0.37,0.5-0.66,0.65-0.87c0.06-0.09,0.16-0.15,0.29-0.19c0.13-0.04,0.25-0.06,0.37-0.05c0.12,0.01,0.2,0.04,0.26,0.1
		c0.05,0.05,0.05,0.12-0.02,0.21c-0.06,0.17-0.2,0.42-0.4,0.73c-0.21,0.31-0.45,0.67-0.73,1.07c-0.28,0.4-0.59,0.82-0.92,1.28
		c-0.34,0.45-0.66,0.89-0.99,1.33c-0.54,0.69-1.04,1.29-1.5,1.79c-0.46,0.51-0.91,0.76-1.34,0.76c-0.65,0-1.11-0.12-1.39-0.36
		c-0.28-0.24-0.43-0.55-0.45-0.94c0.02-0.45,0.09-0.96,0.19-1.52c0.11-0.56,0.23-1.14,0.37-1.75s0.28-1.2,0.42-1.79
		c0.14-0.59,0.25-1.15,0.34-1.67c0.02-0.06,0.02-0.16-0.02-0.29s-0.14-0.14-0.31-0.03c-0.17,0.09-0.39,0.28-0.65,0.58
		c-0.26,0.3-0.51,0.63-0.74,0.99c-0.24,0.36-0.45,0.7-0.63,1.03c-0.18,0.34-0.28,0.58-0.28,0.73c-0.15,0.69-0.31,1.38-0.47,2.07
		c-0.16,0.69-0.4,1.42-0.73,2.2c-0.09,0.15-0.26,0.28-0.52,0.39c-0.26,0.11-0.52,0.18-0.78,0.21c-0.26,0.03-0.49,0.02-0.68-0.05
		c-0.19-0.06-0.28-0.18-0.26-0.36c0.21-0.45,0.43-0.98,0.63-1.58c0.2-0.6,0.37-1.25,0.49-1.94c0.12-0.69,0.19-1.41,0.21-2.15
		C94.51,10.24,94.45,9.51,94.3,8.8z"/>
	<path class="st0" d="M108.49,7.96c0.34,0.02,0.65,0.12,0.91,0.29c0.13-0.13,0.34-0.23,0.63-0.29c0.29-0.06,0.58-0.1,0.87-0.1
		c0.29,0,0.55,0.02,0.78,0.06c0.23,0.04,0.34,0.1,0.34,0.16c-0.04,0.11-0.14,0.37-0.27,0.78c-0.14,0.41-0.3,0.9-0.49,1.47
		c-0.18,0.57-0.37,1.18-0.57,1.81c-0.19,0.64-0.36,1.24-0.5,1.79c-0.14,0.56-0.25,1.04-0.32,1.44c-0.08,0.4-0.08,0.63-0.02,0.7
		c0.19-0.11,0.46-0.41,0.79-0.91c0.33-0.5,0.68-1.06,1.05-1.68c0.37-0.62,0.73-1.24,1.08-1.86c0.36-0.61,0.64-1.09,0.86-1.44
		c0.06-0.09,0.15-0.15,0.26-0.19c0.11-0.04,0.22-0.06,0.34-0.06s0.21,0.03,0.28,0.08c0.06,0.05,0.07,0.14,0.03,0.24
		c-0.26,0.47-0.53,0.97-0.81,1.49c-0.28,0.52-0.57,1.02-0.86,1.52c-0.29,0.5-0.56,0.96-0.81,1.39c-0.25,0.43-0.47,0.8-0.66,1.1
		c-0.04,0.06-0.12,0.18-0.24,0.34c-0.12,0.16-0.26,0.32-0.44,0.48c-0.17,0.16-0.36,0.3-0.55,0.42c-0.19,0.12-0.39,0.18-0.58,0.18
		c-0.65-0.04-1.09-0.25-1.34-0.61c-0.25-0.37-0.39-0.84-0.44-1.42c-0.3,0.5-0.66,0.96-1.08,1.39c-0.42,0.43-0.94,0.66-1.57,0.68
		c-0.69,0.02-1.19-0.12-1.5-0.44c-0.31-0.31-0.52-0.68-0.61-1.12c-0.1-0.43-0.11-0.86-0.05-1.29s0.13-0.75,0.19-0.97
		c0.15-0.58,0.39-1.2,0.71-1.86c0.32-0.66,0.71-1.26,1.16-1.81c0.45-0.55,0.97-0.99,1.55-1.33C107.2,8.06,107.82,7.92,108.49,7.96z
		 M109.01,8.83c-0.13-0.24-0.29-0.33-0.47-0.27s-0.39,0.2-0.61,0.44c-0.23,0.24-0.46,0.54-0.71,0.91c-0.25,0.37-0.48,0.74-0.7,1.13
		c-0.22,0.39-0.41,0.77-0.58,1.13c-0.17,0.37-0.3,0.66-0.39,0.87c-0.39,0.97-0.59,1.76-0.61,2.36c-0.02,0.6,0.16,0.88,0.55,0.84
		c0.17,0,0.34-0.06,0.52-0.18c0.17-0.12,0.33-0.25,0.47-0.4c0.14-0.15,0.26-0.3,0.36-0.44c0.1-0.14,0.17-0.24,0.21-0.31
		c0.17-0.3,0.39-0.74,0.66-1.31c0.27-0.57,0.52-1.17,0.76-1.79c0.24-0.63,0.42-1.21,0.55-1.76C109.14,9.49,109.14,9.09,109.01,8.83z
		"/>
	<path class="st0" d="M113.21,8.8c0-0.17,0.06-0.33,0.18-0.49c0.12-0.15,0.27-0.28,0.45-0.39c0.18-0.11,0.39-0.19,0.61-0.26
		c0.23-0.06,0.45-0.1,0.66-0.1c0.13,0,0.23,0.11,0.29,0.34c0.06,0.23,0.12,0.48,0.16,0.76c0.04,0.28,0.07,0.56,0.08,0.82
		c0.01,0.27,0.03,0.47,0.05,0.6c0.3-0.43,0.65-0.85,1.05-1.26c0.4-0.41,0.72-0.7,0.95-0.87c0.26-0.15,0.53-0.26,0.82-0.32
		c0.29-0.06,0.57-0.09,0.84-0.06c0.27,0.02,0.5,0.09,0.68,0.19c0.18,0.11,0.3,0.26,0.34,0.45c0.04,0.24,0.04,0.56-0.02,0.97
		c-0.05,0.41-0.13,0.86-0.23,1.34c-0.1,0.49-0.21,0.98-0.32,1.49c-0.12,0.51-0.22,0.98-0.31,1.41c-0.04,0.13-0.11,0.32-0.19,0.58
		c-0.09,0.26-0.16,0.53-0.23,0.81c-0.06,0.28-0.11,0.52-0.13,0.73c-0.02,0.21,0.01,0.32,0.1,0.34c0.04,0.02,0.17-0.08,0.37-0.31
		c0.2-0.23,0.45-0.51,0.73-0.86s0.59-0.74,0.92-1.18c0.33-0.44,0.66-0.87,0.99-1.29c0.32-0.42,0.63-0.81,0.91-1.18
		c0.28-0.37,0.5-0.66,0.65-0.87c0.06-0.09,0.16-0.15,0.29-0.19c0.13-0.04,0.25-0.06,0.37-0.05c0.12,0.01,0.21,0.04,0.26,0.1
		c0.05,0.05,0.05,0.12-0.02,0.21c-0.06,0.17-0.2,0.42-0.4,0.73c-0.21,0.31-0.45,0.67-0.73,1.07c-0.28,0.4-0.59,0.82-0.92,1.28
		c-0.33,0.45-0.66,0.89-0.99,1.33c-0.54,0.69-1.04,1.29-1.5,1.79c-0.46,0.51-0.91,0.76-1.34,0.76c-0.65,0-1.11-0.12-1.39-0.36
		c-0.28-0.24-0.43-0.55-0.45-0.94c0.02-0.45,0.09-0.96,0.19-1.52c0.11-0.56,0.23-1.14,0.37-1.75c0.14-0.6,0.28-1.2,0.42-1.79
		c0.14-0.59,0.25-1.15,0.34-1.67c0.02-0.06,0.02-0.16-0.02-0.29c-0.03-0.13-0.13-0.14-0.31-0.03c-0.17,0.09-0.39,0.28-0.65,0.58
		c-0.26,0.3-0.51,0.63-0.74,0.99c-0.24,0.36-0.45,0.7-0.63,1.03c-0.18,0.34-0.27,0.58-0.27,0.73c-0.15,0.69-0.31,1.38-0.47,2.07
		c-0.16,0.69-0.4,1.42-0.73,2.2c-0.09,0.15-0.26,0.28-0.52,0.39c-0.26,0.11-0.52,0.18-0.78,0.21c-0.26,0.03-0.49,0.02-0.68-0.05
		c-0.19-0.06-0.28-0.18-0.26-0.36c0.22-0.45,0.43-0.98,0.63-1.58c0.2-0.6,0.37-1.25,0.49-1.94c0.12-0.69,0.19-1.41,0.21-2.15
		C113.43,10.24,113.36,9.51,113.21,8.8z"/>
</g>
</svg>
