<?xml version="1.0" encoding="utf-8"?>
<!-- Generator: Adobe Illustrator 24.1.2, SVG Export Plug-In . SVG Version: 6.00 Build 0)  -->
<svg version="1.1" id="Layer_1" xmlns="http://www.w3.org/2000/svg" xmlns:xlink="http://www.w3.org/1999/xlink" x="0px" y="0px"
	 viewBox="0 0 130 25" style="enable-background:new 0 0 130 25;" xml:space="preserve">
<style type="text/css">
	.st0{fill:#111111;}
</style>
<g>
	<path class="st0" d="M9.5,7C9.3,7.2,9.2,7.3,9,7.1C8.8,6.9,8.6,6.6,8.4,6.3S8.1,5.7,8,5.3C7.9,5,7.9,4.8,7.9,4.7
		c0.2-0.9,0.5-1.6,1-2.2C9.3,1.8,9.8,1.3,10.3,1s1.1-0.6,1.6-0.8C12.5,0.1,13,0,13.5,0c0.6,0,1,0.3,1.3,0.8s0.5,1,0.7,1.6
		s0.2,1.2,0.2,1.8c0,0.6,0,1,0,1.3c0,1-0.2,2.1-0.4,3.3c-0.2,1.1-0.5,2.3-0.9,3.4c-0.4,1.1-0.9,2.2-1.4,3.2c-0.6,1-1.2,1.9-1.9,2.7
		s-1.5,1.4-2.3,1.9c-0.8,0.5-1.7,0.7-2.7,0.7c-0.7,0-1.3-0.1-1.8-0.4s-1-0.6-1.3-1c-0.3-0.4-0.5-0.9-0.6-1.5c-0.1-0.6,0-1.3,0.2-2
		c0.2-0.6,0.4-1.2,0.8-1.8c0.3-0.6,0.8-1,1.3-1.4c0.5-0.4,1.1-0.7,1.8-0.9c0.7-0.2,1.4-0.2,2.2-0.1c0.2,0,0.4,0.1,0.6,0.1
		c0.2,0.1,0.4,0.2,0.5,0.3c0.1,0.1,0.2,0.2,0.1,0.3c0,0.1-0.2,0.2-0.5,0.4c-1.1-0.1-2.1,0.1-2.9,0.8s-1.5,1.5-1.8,2.7
		c-0.1,0.4-0.2,0.8-0.3,1.3s0,0.9,0.1,1.3c0.1,0.4,0.3,0.7,0.6,1c0.3,0.3,0.7,0.4,1.2,0.3c0.7,0,1.3-0.3,2-0.8s1.2-1.2,1.7-2
		c0.5-0.8,1-1.8,1.4-2.8c0.4-1,0.8-2.1,1.1-3.2C12.7,10,13,9,13.2,8c0.2-1,0.3-1.9,0.3-2.7c0-1.3,0-2.2-0.1-2.9
		c-0.1-0.7-0.3-1-0.4-1.1c-0.2-0.1-0.4,0-0.6,0.1c-0.2,0.1-0.5,0.3-0.7,0.5c-0.3,0.3-0.5,0.6-0.7,0.9c-0.2,0.4-0.4,0.7-0.6,1.2
		C10.1,4.5,10,5,9.9,5.3C9.8,5.6,9.8,5.9,9.8,6.1c0,0.2,0,0.4-0.1,0.5C9.7,6.7,9.6,6.8,9.5,7z"/>
	<path class="st0" d="M17.6,17.1c-0.6-0.1-1.1-0.3-1.4-0.7c-0.3-0.3-0.6-0.8-0.7-1.2c-0.1-0.5-0.2-1-0.1-1.5c0.1-0.5,0.2-1,0.3-1.5
		c0.1-0.4,0.4-0.8,0.6-1.3c0.3-0.5,0.6-1,1-1.5c0.4-0.5,0.9-0.9,1.4-1.2c0.5-0.3,1.1-0.5,1.8-0.5c0.4,0,0.7,0.1,1,0.2
		c0.2,0.2,0.4,0.3,0.5,0.5c0.1,0.2,0.1,0.4,0.1,0.7s0,0.5,0,0.8c0,0.4-0.2,0.8-0.4,1.3s-0.6,1-1,1.5c-0.4,0.5-0.9,1-1.4,1.4
		s-1.1,0.8-1.7,1.1c0,0.2,0.1,0.4,0.3,0.6c0.2,0.2,0.4,0.2,0.6,0.2c0.7-0.1,1.4-0.4,2-0.8c0.6-0.4,1.2-1,1.7-1.6
		c0.5-0.6,1-1.2,1.4-1.8c0.4-0.6,0.7-1.2,0.9-1.7c0-0.1,0.1-0.2,0.2-0.2c0.1,0,0.2-0.1,0.3-0.1s0.2,0,0.3,0.1c0.1,0.1,0.1,0.1,0,0.2
		C25,11,24.5,11.9,24,12.7s-1.1,1.6-1.7,2.3c-0.6,0.7-1.3,1.2-2.1,1.6C19.4,17.1,18.5,17.2,17.6,17.1z M17.8,12.5
		c-0.1,0.2-0.1,0.5-0.2,0.9c-0.1,0.4-0.1,0.8-0.1,1.2c0.6-0.4,1.2-0.9,1.7-1.6c0.5-0.6,0.9-1.3,1.2-1.9c0.3-0.6,0.4-1.1,0.4-1.6
		c0-0.4-0.2-0.7-0.6-0.7c-0.2,0-0.4,0.1-0.6,0.3c-0.2,0.2-0.4,0.5-0.6,0.9c-0.2,0.4-0.4,0.8-0.6,1.2C18.1,11.7,18,12.1,17.8,12.5z"
		/>
	<path class="st0" d="M24.4,24.9c-0.4,0.1-0.7,0.1-0.9,0s-0.4-0.2-0.6-0.4s-0.2-0.4-0.3-0.6c-0.1-0.2-0.1-0.5-0.1-0.7
		c-0.1-0.6-0.1-1.3-0.1-2.1c0-0.8,0.1-1.7,0.2-2.6c0.1-1,0.3-1.9,0.4-2.9s0.4-1.9,0.6-2.8s0.4-1.7,0.7-2.5C24.5,9.6,24.8,9,25,8.6
		c0.1-0.2,0.3-0.4,0.5-0.6s0.5-0.2,0.8-0.3c0.3,0,0.5,0,0.7,0.1s0.3,0.2,0.2,0.4C27,8.6,26.8,9,26.5,9.7c0.3-0.4,0.6-0.8,1-1.1
		C27.9,8.2,28.4,8,28.9,8c0.7,0,1.2,0.2,1.5,0.6s0.5,0.9,0.5,1.4s0,1.1,0,1.6c-0.1,0.5-0.2,0.9-0.2,1.1c-0.1,0.4-0.2,0.7-0.3,1
		c-0.1,0.3-0.2,0.6-0.4,1c0.7-0.5,1.4-1.1,2.1-1.9c0.7-0.8,1.3-1.6,1.8-2.5c0.1-0.1,0.2-0.1,0.3-0.2c0.1,0,0.2-0.1,0.3-0.1
		s0.2,0,0.3,0.1c0.1,0.1,0.1,0.1,0,0.2L34.3,11c-0.2,0.4-0.5,0.8-0.8,1.2s-0.7,0.9-1.2,1.4c-0.4,0.4-0.9,0.9-1.4,1.3
		s-1.1,0.7-1.6,0.9c-0.4,0.5-0.8,1-1.3,1.2c-0.5,0.3-1.1,0.4-1.8,0.4c-0.3,0-0.5-0.1-0.7-0.2s-0.3-0.2-0.3-0.2c0,0,0,0-0.1,0
		c-0.2,1.2-0.3,2.3-0.4,3.4s-0.2,2-0.2,2.8c0,0.1,0,0.3,0,0.5c0,0.2,0,0.4,0,0.6c0,0.2,0,0.4,0,0.5C24.5,24.8,24.5,24.9,24.4,24.9z
		 M27,15.9c-0.4-0.1-0.8-0.4-1-0.7s-0.4-0.6-0.5-1c-0.1,0.7-0.1,1.2,0,1.6c0.1,0.4,0.3,0.6,0.6,0.5c0.2,0,0.4-0.1,0.6-0.3L27,15.9z
		 M27,10.3c-0.1,0.2-0.3,0.5-0.4,1c-0.1,0.5-0.2,0.9-0.3,1.1c0,0,0,0.1,0,0.2l-0.1,0.5c0,0.2,0,0.4,0.1,0.6c0,0.2,0.1,0.5,0.2,0.7
		c0.1,0.2,0.3,0.4,0.4,0.6s0.4,0.3,0.6,0.3c0.2-0.4,0.4-0.8,0.6-1.3c0.2-0.5,0.4-1,0.5-1.6c0.1-0.5,0.2-0.9,0.3-1.4
		c0.1-0.5,0.1-0.9,0.1-1.2c0-0.4,0-0.6-0.1-0.9c0-0.2-0.1-0.3-0.2-0.3c-0.2,0-0.4,0.1-0.5,0.3c-0.2,0.1-0.4,0.3-0.5,0.5
		c-0.1,0.2-0.3,0.4-0.4,0.5C27.1,10.1,27,10.2,27,10.3z"/>
	<path class="st0" d="M34.4,8.4c0-0.1,0.2-0.3,0.4-0.4c0.2-0.1,0.5-0.3,0.8-0.3c0.3-0.1,0.5-0.1,0.7-0.1c0.2,0,0.3,0.1,0.4,0.3
		c0,0.1-0.1,0.3-0.3,0.8C36.3,9,36.1,9.5,36,10.1c-0.2,0.6-0.3,1.2-0.5,1.8c-0.2,0.7-0.3,1.3-0.4,1.8c-0.1,0.6-0.2,1-0.2,1.4
		c0,0.4,0,0.6,0.2,0.7c0,0,0.2-0.1,0.3-0.3s0.4-0.5,0.6-0.8c0.2-0.3,0.5-0.7,0.8-1.2c0.3-0.4,0.5-0.9,0.8-1.3s0.5-0.8,0.8-1.2
		c0.2-0.4,0.4-0.7,0.6-0.9c0.1-0.1,0.2-0.1,0.3-0.2c0.1,0,0.2-0.1,0.3-0.1s0.2,0,0.3,0.1c0.1,0.1,0.1,0.1,0,0.2
		c-0.5,1-1,1.9-1.6,2.9c-0.6,1-1.1,1.9-1.6,2.7c0,0.1-0.1,0.2-0.2,0.3c-0.1,0.1-0.3,0.3-0.4,0.5c-0.2,0.1-0.3,0.3-0.5,0.4
		c-0.2,0.1-0.4,0.2-0.6,0.2c-0.6,0-1-0.2-1.2-0.4s-0.4-0.6-0.5-1.1c-0.1-0.4-0.1-0.9,0-1.5s0.1-1.1,0.2-1.6c0.1-0.9,0.3-1.8,0.6-2.5
		C34.1,9.3,34.3,8.7,34.4,8.4z M35.3,4.2c0.1-0.3,0.4-0.5,0.7-0.7c0.3-0.2,0.7-0.2,1-0.2c0.4,0,0.6,0.2,0.8,0.5s0.2,0.6,0,0.9
		c-0.2,0.3-0.4,0.5-0.7,0.7c-0.3,0.2-0.7,0.2-1,0.2c-0.4,0-0.6-0.2-0.8-0.4C35.1,4.8,35.1,4.5,35.3,4.2z"/>
	<path class="st0" d="M38.5,8.8c0-0.2,0.1-0.3,0.2-0.5C38.8,8.2,39,8,39.2,7.9s0.4-0.2,0.6-0.3c0.2-0.1,0.5-0.1,0.7-0.1
		c0.1,0,0.2,0.1,0.3,0.3s0.1,0.5,0.2,0.8S41,9.2,41,9.5c0,0.3,0,0.5,0,0.6c0.3-0.4,0.7-0.9,1-1.3c0.4-0.4,0.7-0.7,1-0.9
		c0.3-0.2,0.5-0.3,0.8-0.3s0.6-0.1,0.8-0.1c0.3,0,0.5,0.1,0.7,0.2c0.2,0.1,0.3,0.3,0.3,0.5c0,0.2,0,0.6,0,1c0,0.4-0.1,0.9-0.2,1.3
		c-0.1,0.5-0.2,1-0.3,1.5c-0.1,0.5-0.2,1-0.3,1.4c0,0.1-0.1,0.3-0.2,0.6c-0.1,0.3-0.2,0.5-0.2,0.8c-0.1,0.3-0.1,0.5-0.1,0.7
		c0,0.2,0,0.3,0.1,0.3c0,0,0.2-0.1,0.4-0.3c0.2-0.2,0.5-0.5,0.7-0.9c0.3-0.3,0.6-0.7,0.9-1.2s0.7-0.9,1-1.3c0.3-0.4,0.6-0.8,0.9-1.2
		s0.5-0.7,0.7-0.9c0.1-0.1,0.2-0.1,0.3-0.2s0.3-0.1,0.4-0.1s0.2,0,0.3,0.1c0,0.1,0,0.1,0,0.2c-0.1,0.2-0.2,0.4-0.4,0.7
		c-0.2,0.3-0.5,0.7-0.7,1.1s-0.6,0.8-0.9,1.3c-0.3,0.4-0.7,0.9-1,1.3c-0.5,0.7-1,1.3-1.5,1.8c-0.5,0.5-0.9,0.8-1.3,0.8
		c-0.7,0-1.1-0.1-1.4-0.4s-0.4-0.5-0.5-0.9c0-0.4,0.1-1,0.2-1.5c0.1-0.6,0.2-1.1,0.4-1.8c0.1-0.6,0.3-1.2,0.4-1.8s0.3-1.1,0.3-1.7
		c0-0.1,0-0.2,0-0.3c0-0.1-0.1-0.1-0.3,0c-0.2,0.1-0.4,0.3-0.7,0.6c-0.3,0.3-0.5,0.6-0.7,1c-0.2,0.4-0.5,0.7-0.6,1
		c-0.2,0.3-0.3,0.6-0.3,0.7c-0.2,0.7-0.3,1.4-0.5,2.1s-0.4,1.4-0.7,2.2c-0.1,0.1-0.3,0.3-0.5,0.4c-0.3,0.1-0.5,0.2-0.8,0.2
		c-0.3,0-0.5,0-0.7,0c-0.2-0.1-0.3-0.2-0.3-0.4c0.2-0.5,0.4-1,0.6-1.6s0.4-1.3,0.5-1.9c0.1-0.7,0.2-1.4,0.2-2.1
		C38.8,10.2,38.7,9.5,38.5,8.8z"/>
	<path class="st0" d="M57.4,3c0-0.1,0.2-0.2,0.4-0.3c0.3-0.1,0.5-0.3,0.8-0.4C58.9,2.1,59.1,2,59.3,2s0.3,0,0.3,0.1
		c-0.2,0.7-0.3,1.4-0.4,2C59,4.8,58.9,5.4,58.8,6c-0.1,0.6-0.2,1.2-0.3,1.8c-0.1,0.6-0.2,1.3-0.3,2c0.6,0.2,1.1,0.5,1.5,0.8
		c0.8-0.4,1.5-1,2.1-1.8s1.1-1.5,1.5-2.3c0.4-0.8,0.7-1.7,0.9-2.6c0.2-0.9,0.4-1.7,0.5-2.5c0-0.2,0.2-0.3,0.5-0.5s0.7-0.2,1-0.3
		c0.4-0.1,0.7-0.1,0.9-0.1c0.3,0,0.3,0.1,0.2,0.3c-0.3,1.2-0.6,2.4-1,3.5s-0.9,2.1-1.4,3c-0.6,0.9-1.2,1.7-2,2.4s-1.6,1.2-2.6,1.6
		c0.3,0.5,0.6,1.1,0.9,1.9c0.3,0.8,0.6,1.5,0.9,2.3c0.3,0.7,0.7,1.4,1.1,2c0.4,0.6,0.9,1,1.4,1.2c0.2,0.1,0.3,0.2,0.3,0.3
		c0,0.1-0.1,0.3-0.2,0.4c-0.1,0.1-0.3,0.2-0.5,0.3c-0.2,0.1-0.5,0.1-0.7,0c-0.5-0.1-1-0.3-1.4-0.6c-0.4-0.3-0.7-0.7-1-1.2
		c-0.3-0.5-0.5-1-0.7-1.6c-0.2-0.6-0.4-1.1-0.5-1.7c-0.2-0.6-0.3-1.1-0.5-1.6c-0.2-0.5-0.3-0.9-0.5-1.3l-1,0.2
		c-0.2,1.2-0.3,2.3-0.5,3.3c-0.1,1-0.2,1.8-0.3,2.7c0,0.2-0.1,0.3-0.3,0.4c-0.2,0-0.5,0-0.7,0c-0.3-0.1-0.6-0.2-0.8-0.4
		c-0.3-0.2-0.5-0.4-0.5-0.7c0.1-0.8,0.3-1.6,0.5-2.5c0.2-0.8,0.4-1.7,0.5-2.7c-0.7-0.1-1.1-0.3-1.4-0.6s-0.4-0.6-0.3-0.9
		c0.1-0.4,0.3-0.6,0.7-0.9c0.4-0.2,0.9-0.3,1.5-0.4c0.1-0.7,0.2-1.3,0.3-1.8s0.2-1,0.2-1.5c0-0.4,0.1-0.9,0.2-1.4
		C57.1,4.3,57.2,3.7,57.4,3z M56.1,10.3c-0.3,0-0.5,0.1-0.7,0.2c-0.2,0.1-0.3,0.2-0.3,0.4s0,0.3,0.1,0.4c0.1,0.1,0.3,0.2,0.7,0.2
		L56.1,10.3z M58.1,11.3c0.1,0,0.3-0.1,0.5-0.1c-0.1-0.1-0.3-0.3-0.4-0.4C58.2,10.9,58.1,11.1,58.1,11.3z"/>
	<path class="st0" d="M70,10.3c-0.1,0.5-0.3,1.1-0.6,1.7c-0.3,0.6-0.5,1.3-0.7,1.8s-0.3,1.1-0.3,1.5c0,0.4,0.2,0.6,0.5,0.6
		c0.2,0,0.5-0.2,0.9-0.7c0.4-0.4,0.8-1,1.2-1.6s0.8-1.3,1.2-1.9c0.4-0.6,0.7-1.1,0.9-1.5c0.1-0.1,0.2-0.1,0.3-0.2s0.3-0.1,0.4-0.1
		s0.2,0,0.3,0.1c0.1,0.1,0.1,0.1,0,0.2c-0.2,0.4-0.6,1-0.9,1.8s-0.8,1.5-1.3,2.3c-0.2,0.4-0.5,0.7-0.7,1.1c-0.3,0.4-0.5,0.6-0.8,0.9
		s-0.6,0.5-0.9,0.6s-0.7,0.2-1.1,0.2c-0.6,0-1-0.1-1.2-0.4c-0.2-0.3-0.4-0.6-0.4-1c0-0.4,0-0.9,0.1-1.4c0.1-0.5,0.3-1.1,0.4-1.6
		c0.2-0.5,0.3-1,0.5-1.5c0.2-0.5,0.3-0.8,0.3-1.1c0-0.2-0.1-0.3-0.3-0.5c-0.2-0.1-0.3-0.1-0.4,0.1l0,0c0,0.1-0.1,0.2-0.2,0.3
		c-0.1,0.2-0.2,0.3-0.2,0.3c-0.2,0.3-0.4,0.4-0.7,0.3s-0.3-0.2-0.2-0.4l0.1-0.3c0.2-0.5,0.3-0.9,0.3-1.3c0-0.3,0-0.7-0.2-1
		c0-0.2,0-0.4,0.2-0.6c0.2-0.2,0.4-0.4,0.7-0.5s0.4-0.2,0.7-0.2c0.2,0,0.3,0.2,0.3,0.6c-0.1,0.2-0.1,0.4,0,0.6s0.3,0.3,0.4,0.5
		c0.1,0.1,0.3,0.3,0.4,0.4s0.3,0.3,0.5,0.5c0.2,0.2,0.4,0.4,0.6,0.6C70.1,9.9,70.1,10.1,70,10.3z"/>
	<path class="st0" d="M73.7,8.4c0-0.1,0.2-0.3,0.4-0.4s0.5-0.3,0.8-0.3c0.3-0.1,0.5-0.1,0.7-0.1c0.2,0,0.3,0.1,0.4,0.3
		c0,0.1-0.1,0.3-0.3,0.8c-0.1,0.4-0.3,0.9-0.4,1.5c-0.2,0.6-0.3,1.2-0.5,1.8c-0.2,0.7-0.3,1.3-0.4,1.8s-0.2,1-0.2,1.4
		c0,0.4,0.1,0.6,0.2,0.7c0,0,0.2-0.1,0.3-0.3c0.2-0.2,0.4-0.5,0.6-0.8s0.5-0.7,0.8-1.2c0.3-0.4,0.5-0.9,0.8-1.3s0.5-0.8,0.8-1.2
		c0.2-0.4,0.4-0.7,0.6-0.9c0.1-0.1,0.2-0.1,0.3-0.2c0.1,0,0.2-0.1,0.3-0.1c0.1,0,0.2,0,0.3,0.1c0.1,0.1,0.1,0.1,0,0.2
		c-0.5,1-1,1.9-1.6,2.9c-0.6,1-1.1,1.9-1.6,2.7c0,0.1-0.1,0.2-0.2,0.3c-0.1,0.1-0.3,0.3-0.4,0.5c-0.2,0.1-0.3,0.3-0.5,0.4
		c-0.2,0.1-0.4,0.2-0.6,0.2c-0.6,0-1-0.2-1.2-0.4s-0.4-0.6-0.5-1.1c-0.1-0.4-0.1-0.9-0.1-1.5c0-0.5,0.1-1.1,0.2-1.6
		c0.1-0.9,0.3-1.8,0.6-2.5C73.4,9.3,73.6,8.7,73.7,8.4z M74.5,4.2c0.1-0.3,0.4-0.5,0.7-0.7c0.3-0.2,0.7-0.2,1.1-0.2
		c0.4,0,0.6,0.2,0.8,0.5s0.2,0.6,0.1,0.9c-0.2,0.3-0.4,0.5-0.7,0.7c-0.3,0.2-0.7,0.2-1.1,0.2c-0.4,0-0.6-0.2-0.8-0.4
		C74.4,4.8,74.4,4.5,74.5,4.2z"/>
	<path class="st0" d="M85.7,10.9c-0.4,0.6-0.9,1.3-1.5,1.9c-0.6,0.6-1.3,1.1-2.2,1.5c-0.1,0.6-0.4,1.2-0.7,1.8
		c-0.2,0.3-0.5,0.5-0.8,0.8s-0.7,0.4-1.2,0.5c-0.7,0.1-1.2,0-1.6-0.2s-0.7-0.5-0.8-0.9c-0.1-0.4-0.1-0.7,0.1-1.1
		c0.2-0.4,0.6-0.6,1.1-0.8c0.2-0.1,0.5-0.2,0.8-0.2s0.6-0.1,0.9-0.2c0-0.6,0.1-1.3,0-1.9c0-0.6-0.1-1.1-0.1-1.4
		c0-0.4-0.1-0.6-0.1-0.7s-0.1-0.1-0.3,0.1c0,0-0.1,0.1-0.1,0.1c0,0.1-0.1,0.1-0.1,0.1c-0.2,0.3-0.4,0.4-0.7,0.3s-0.3-0.2-0.2-0.4
		l0.3-0.5l0-0.1c0.2-0.3,0.3-0.5,0.4-0.7c0.1-0.2,0.2-0.5,0.3-0.9c0-0.1,0.1-0.3,0.4-0.4c0.2-0.2,0.4-0.3,0.7-0.4
		c0.3-0.1,0.5-0.2,0.7-0.2c0.2,0,0.3,0.1,0.3,0.2c0,0.5,0,1.1,0.1,1.7c0.1,0.6,0.2,1.1,0.3,1.7c0.1,0.4,0.2,0.8,0.2,1.2
		c0.1,0.4,0.1,0.8,0.1,1.2c0.7-0.4,1.3-0.8,1.7-1.3c0.5-0.5,0.9-1.1,1.4-1.8c0.1-0.1,0.2-0.1,0.3-0.2c0.1,0,0.2-0.1,0.3-0.1
		c0.1,0,0.2,0,0.3,0.1c0.1,0.1,0.1,0.1,0,0.2L85.7,10.9z M78.4,16.4c0.3,0,0.5-0.2,0.7-0.5c0.2-0.3,0.3-0.6,0.4-1.1
		c-0.4,0.1-0.8,0.2-1.1,0.4s-0.4,0.3-0.6,0.4s-0.2,0.2-0.2,0.3c0,0.1,0,0.2,0,0.2c0,0.1,0.1,0.1,0.2,0.2
		C77.9,16.5,78.1,16.5,78.4,16.4z"/>
	<path class="st0" d="M85.6,16.2c-0.1,0.3-0.3,0.5-0.5,0.7c-0.3,0.2-0.5,0.3-0.7,0.4c-0.3,0.1-0.5,0.1-0.7,0c-0.2,0-0.3-0.2-0.3-0.4
		c0-0.6,0.1-1.3,0.2-2.1c0.1-0.8,0.2-1.7,0.4-2.6s0.4-1.8,0.6-2.8c0.2-0.9,0.5-1.8,0.7-2.7s0.6-1.6,0.9-2.3c0.3-0.7,0.6-1.3,0.9-1.7
		c0.1-0.1,0.2-0.2,0.4-0.3c0.2-0.1,0.5-0.2,0.7-0.2c0.3,0,0.5-0.1,0.7-0.1c0.2,0,0.3,0.1,0.3,0.2c0,0.1-0.2,0.4-0.4,1
		C88.6,4,88.3,4.7,88,5.5c-0.3,0.8-0.6,1.7-0.9,2.5c-0.3,0.9-0.4,1.6-0.5,2.1c0.1-0.2,0.3-0.4,0.5-0.7s0.4-0.5,0.7-0.7
		c0.3-0.2,0.6-0.4,0.9-0.5C89.1,8.1,89.5,8,89.9,8c0.5,0,0.9,0.1,1.2,0.3s0.4,0.4,0.4,0.7c-0.1,0.5-0.2,1.1-0.4,1.9
		s-0.4,1.5-0.6,2.3s-0.3,1.4-0.4,2c-0.1,0.6,0.1,0.9,0.3,1c0.1,0,0.3-0.1,0.7-0.5c0.3-0.4,0.7-0.9,1.2-1.4c0.4-0.6,0.9-1.2,1.4-1.9
		c0.5-0.7,0.9-1.4,1.2-2.1c0-0.1,0.1-0.2,0.2-0.2c0.1-0.1,0.2-0.1,0.3-0.1c0.1,0,0.2,0,0.3,0.1c0.1,0.1,0.1,0.1,0.1,0.2
		c-0.1,0.2-0.3,0.5-0.5,0.9c-0.2,0.4-0.5,0.9-0.8,1.4c-0.3,0.5-0.6,1.1-1,1.6c-0.4,0.6-0.8,1.1-1.2,1.5s-0.8,0.8-1.2,1.1
		c-0.4,0.3-0.8,0.4-1.2,0.4c-0.6,0-1-0.2-1.2-0.4s-0.4-0.6-0.5-0.9C88,15.5,87.9,15,88,14.5c0.1-0.5,0.2-1.1,0.3-1.6
		s0.3-1.1,0.4-1.6S89,10.2,89,9.7c0-0.1,0-0.2-0.1-0.3s-0.2-0.1-0.3,0c-0.1,0-0.2,0.1-0.4,0.3c-0.2,0.1-0.4,0.3-0.6,0.5
		c-0.2,0.2-0.4,0.5-0.7,0.8c-0.2,0.3-0.4,0.6-0.6,1c-0.1,0.3-0.2,0.6-0.3,1c-0.1,0.4-0.2,0.8-0.2,1.2c-0.1,0.4-0.1,0.8-0.2,1.2
		C85.7,15.6,85.6,15.9,85.6,16.2z"/>
	<path class="st0" d="M94.3,8.8c0-0.2,0.1-0.3,0.2-0.5c0.1-0.1,0.3-0.3,0.4-0.4s0.4-0.2,0.6-0.3c0.2-0.1,0.4-0.1,0.7-0.1
		c0.1,0,0.2,0.1,0.3,0.3s0.1,0.5,0.2,0.8s0.1,0.6,0.1,0.8c0,0.3,0,0.5,0.1,0.6c0.3-0.4,0.7-0.9,1.1-1.3s0.7-0.7,0.9-0.9
		c0.3-0.2,0.5-0.3,0.8-0.3s0.6-0.1,0.8-0.1c0.3,0,0.5,0.1,0.7,0.2c0.2,0.1,0.3,0.3,0.3,0.5c0,0.2,0,0.6,0,1
		c-0.1,0.4-0.1,0.9-0.2,1.3c-0.1,0.5-0.2,1-0.3,1.5c-0.1,0.5-0.2,1-0.3,1.4c0,0.1-0.1,0.3-0.2,0.6c-0.1,0.3-0.2,0.5-0.2,0.8
		c-0.1,0.3-0.1,0.5-0.1,0.7c0,0.2,0,0.3,0.1,0.3c0,0,0.2-0.1,0.4-0.3c0.2-0.2,0.4-0.5,0.7-0.9c0.3-0.3,0.6-0.7,0.9-1.2
		c0.3-0.4,0.7-0.9,1-1.3c0.3-0.4,0.6-0.8,0.9-1.2c0.3-0.4,0.5-0.7,0.7-0.9c0.1-0.1,0.2-0.1,0.3-0.2s0.3-0.1,0.4-0.1s0.2,0,0.3,0.1
		c0.1,0.1,0.1,0.1,0,0.2c-0.1,0.2-0.2,0.4-0.4,0.7c-0.2,0.3-0.4,0.7-0.7,1.1c-0.3,0.4-0.6,0.8-0.9,1.3c-0.3,0.4-0.7,0.9-1,1.3
		c-0.5,0.7-1,1.3-1.5,1.8c-0.5,0.5-0.9,0.8-1.3,0.8c-0.7,0-1.1-0.1-1.4-0.4s-0.4-0.5-0.4-0.9c0-0.4,0.1-1,0.2-1.5
		c0.1-0.6,0.2-1.1,0.4-1.8s0.3-1.2,0.4-1.8s0.3-1.1,0.3-1.7c0-0.1,0-0.2,0-0.3s-0.1-0.1-0.3,0c-0.2,0.1-0.4,0.3-0.7,0.6
		s-0.5,0.6-0.7,1c-0.2,0.4-0.4,0.7-0.6,1c-0.2,0.3-0.3,0.6-0.3,0.7c-0.2,0.7-0.3,1.4-0.5,2.1s-0.4,1.4-0.7,2.2
		c-0.1,0.1-0.3,0.3-0.5,0.4c-0.3,0.1-0.5,0.2-0.8,0.2c-0.3,0-0.5,0-0.7,0c-0.2-0.1-0.3-0.2-0.3-0.4c0.2-0.5,0.4-1,0.6-1.6
		s0.4-1.3,0.5-1.9c0.1-0.7,0.2-1.4,0.2-2.1C94.5,10.2,94.4,9.5,94.3,8.8z"/>
	<path class="st0" d="M108.5,8c0.3,0,0.7,0.1,0.9,0.3c0.1-0.1,0.3-0.2,0.6-0.3c0.3-0.1,0.6-0.1,0.9-0.1s0.6,0,0.8,0.1
		c0.2,0,0.3,0.1,0.3,0.2c0,0.1-0.1,0.4-0.3,0.8c-0.1,0.4-0.3,0.9-0.5,1.5c-0.2,0.6-0.4,1.2-0.6,1.8c-0.2,0.6-0.4,1.2-0.5,1.8
		c-0.1,0.6-0.3,1-0.3,1.4c-0.1,0.4-0.1,0.6,0,0.7c0.2-0.1,0.5-0.4,0.8-0.9s0.7-1.1,1.1-1.7c0.4-0.6,0.7-1.2,1.1-1.9
		c0.4-0.6,0.6-1.1,0.9-1.4c0.1-0.1,0.2-0.1,0.3-0.2s0.2-0.1,0.3-0.1s0.2,0,0.3,0.1c0.1,0.1,0.1,0.1,0,0.2c-0.3,0.5-0.5,1-0.8,1.5
		c-0.3,0.5-0.6,1-0.9,1.5s-0.6,1-0.8,1.4s-0.5,0.8-0.7,1.1c0,0.1-0.1,0.2-0.2,0.3c-0.1,0.2-0.3,0.3-0.4,0.5
		c-0.2,0.2-0.4,0.3-0.6,0.4s-0.4,0.2-0.6,0.2c-0.7,0-1.1-0.3-1.3-0.6c-0.3-0.4-0.4-0.8-0.4-1.4c-0.3,0.5-0.7,1-1.1,1.4
		s-0.9,0.7-1.6,0.7c-0.7,0-1.2-0.1-1.5-0.4c-0.3-0.3-0.5-0.7-0.6-1.1c-0.1-0.4-0.1-0.9-0.1-1.3s0.1-0.8,0.2-1
		c0.2-0.6,0.4-1.2,0.7-1.9s0.7-1.3,1.2-1.8c0.4-0.6,1-1,1.6-1.3C107.2,8.1,107.8,7.9,108.5,8z M109,8.8c-0.1-0.2-0.3-0.3-0.5-0.3
		s-0.4,0.2-0.6,0.4c-0.2,0.2-0.5,0.5-0.7,0.9s-0.5,0.7-0.7,1.1c-0.2,0.4-0.4,0.8-0.6,1.1c-0.2,0.4-0.3,0.7-0.4,0.9
		c-0.4,1-0.6,1.8-0.6,2.4c0,0.6,0.2,0.9,0.6,0.8c0.2,0,0.3-0.1,0.5-0.2c0.2-0.1,0.3-0.3,0.5-0.4s0.3-0.3,0.4-0.4
		c0.1-0.1,0.2-0.2,0.2-0.3c0.2-0.3,0.4-0.7,0.7-1.3c0.3-0.6,0.5-1.2,0.8-1.8c0.2-0.6,0.4-1.2,0.6-1.8C109.1,9.5,109.1,9.1,109,8.8z"
		/>
	<path class="st0" d="M113.2,8.8c0-0.2,0.1-0.3,0.2-0.5c0.1-0.1,0.3-0.3,0.4-0.4s0.4-0.2,0.6-0.3c0.2-0.1,0.4-0.1,0.7-0.1
		c0.1,0,0.2,0.1,0.3,0.3s0.1,0.5,0.2,0.8s0.1,0.6,0.1,0.8c0,0.3,0,0.5,0.1,0.6c0.3-0.4,0.7-0.9,1.1-1.3s0.7-0.7,0.9-0.9
		c0.3-0.2,0.5-0.3,0.8-0.3s0.6-0.1,0.8-0.1c0.3,0,0.5,0.1,0.7,0.2c0.2,0.1,0.3,0.3,0.3,0.5c0,0.2,0,0.6,0,1
		c-0.1,0.4-0.1,0.9-0.2,1.3c-0.1,0.5-0.2,1-0.3,1.5c-0.1,0.5-0.2,1-0.3,1.4c0,0.1-0.1,0.3-0.2,0.6c-0.1,0.3-0.2,0.5-0.2,0.8
		c-0.1,0.3-0.1,0.5-0.1,0.7c0,0.2,0,0.3,0.1,0.3c0,0,0.2-0.1,0.4-0.3c0.2-0.2,0.4-0.5,0.7-0.9s0.6-0.7,0.9-1.2
		c0.3-0.4,0.7-0.9,1-1.3c0.3-0.4,0.6-0.8,0.9-1.2c0.3-0.4,0.5-0.7,0.7-0.9c0.1-0.1,0.2-0.1,0.3-0.2s0.3-0.1,0.4-0.1s0.2,0,0.3,0.1
		c0.1,0.1,0.1,0.1,0,0.2c-0.1,0.2-0.2,0.4-0.4,0.7c-0.2,0.3-0.4,0.7-0.7,1.1c-0.3,0.4-0.6,0.8-0.9,1.3c-0.3,0.4-0.7,0.9-1,1.3
		c-0.5,0.7-1,1.3-1.5,1.8c-0.5,0.5-0.9,0.8-1.3,0.8c-0.7,0-1.1-0.1-1.4-0.4s-0.4-0.5-0.4-0.9c0-0.4,0.1-1,0.2-1.5
		c0.1-0.6,0.2-1.1,0.4-1.8c0.1-0.6,0.3-1.2,0.4-1.8s0.3-1.1,0.3-1.7c0-0.1,0-0.2,0-0.3c0-0.1-0.1-0.1-0.3,0
		c-0.2,0.1-0.4,0.3-0.7,0.6s-0.5,0.6-0.7,1c-0.2,0.4-0.4,0.7-0.6,1c-0.2,0.3-0.3,0.6-0.3,0.7c-0.2,0.7-0.3,1.4-0.5,2.1
		s-0.4,1.4-0.7,2.2c-0.1,0.1-0.3,0.3-0.5,0.4c-0.3,0.1-0.5,0.2-0.8,0.2c-0.3,0-0.5,0-0.7,0c-0.2-0.1-0.3-0.2-0.3-0.4
		c0.2-0.5,0.4-1,0.6-1.6s0.4-1.3,0.5-1.9c0.1-0.7,0.2-1.4,0.2-2.1C113.4,10.2,113.4,9.5,113.2,8.8z"/>
</g>
</svg>
